<svg xmlns="http://www.w3.org/2000/svg" viewBox="0 0 304 182" role="img" aria-label="AWS">
  <path fill="#FF9900" d="M86.4 54.4c0 3.2-.2 5.8-.5 7.8-.4 2-1.1 4.2-2.2 6.4-1 2.2-2.5 4.1-4.4 5.8-1.9 1.7-4.3 3-7.2 4.1-2.9 1.1-6.3 1.6-10.2 1.6-1.9 0-3.8-.1-5.6-.4-1.8-.3-3.4-.6-4.8-1V47.5c1.9-.8 4-1.4 6.3-1.9 2.3-.5 4.7-.7 7.2-.7 4.7 0 8.2.8 10.5 2.5 2.3 1.7 3.5 4.1 3.5 7.2zm-13.6-28.5c-5.1 0-9.6.9-13.5 2.6-3.9 1.7-7.2 4.1-9.9 7.1-2.7 3-4.7 6.5-6.1 10.4-1.4 3.9-2.1 8.1-2.1 12.5 0 4.5.7 8.6 2.1 12.4 1.4 3.8 3.4 7.2 6.1 10.1 2.7 2.9 6 5.2 9.9 6.9 3.9 1.7 8.4 2.6 13.5 2.6 2.9 0 5.7-.3 8.3-.9 2.6-.6 4.9-1.4 6.9-2.4v-12.4c-2.2 1.2-4.6 2.1-7.2 2.8-2.6.7-5.3 1-8.1 1-6.2 0-10.9-1.8-14.1-5.3-3.2-3.5-4.8-8.5-4.8-15 0-3.2.5-6.1 1.5-8.8 1-2.7 2.4-5 4.2-6.9 1.8-1.9 4-3.4 6.5-4.5 2.5-1.1 5.3-1.6 8.4-1.6 2.5 0 4.9.3 7.2.9 2.3.6 4.4 1.4 6.3 2.4V25.9c-2-.9-4.2-1.6-6.6-2.1-2.4-.5-5-.8-7.8-.8z"/>
  <path fill="#252F3E" d="M230.1 92.9c0 16.5-4.5 29.3-13.4 38.4-8.9 9.1-21.3 13.6-37.2 13.6-5.9 0-11.4-.8-16.5-2.3v-14.8c5.4 2.7 11.2 4.1 17.4 4.1 9.6 0 17.1-3.1 22.5-9.2 5.4-6.1 8.1-14.6 8.1-25.4V92.9h19.1zm-19.1-19.1V53.8c0-9.9 2.1-17.6 6.2-23.1 4.1-5.5 10-8.3 17.7-8.3 6.1 0 11.1 2.2 15 6.5 3.9 4.3 5.8 10.3 5.8 17.9 0 7.9-2.1 14.2-6.2 18.9-4.1 4.7-9.8 7.1-17 7.1-3.3 0-6.3-.5-9.1-1.4v-8.5z"/>
</svg>
